<svg 
    id="visual" 
    viewBox="0 0 960 540" 
    width="960" 
    height="540" 
    xmlns="http://www.w3.org/2000/svg" 
    xmlns:xlink="http://www.w3.org/1999/xlink" 
    version="1.1">
    <path 
        d="M0 114L14.5 106.8C29 99.7 58 85.3 87.2 80C116.3 74.7 145.7 78.3 174.8 85.5C204 92.7 233 103.3 262 101.5C291 99.7 320 85.3 349 76.3C378 67.3 407 63.7 436.2 72.7C465.3 81.7 494.7 103.3 523.8 104.3C553 105.3 582 85.7 611 86.7C640 87.7 669 109.3 698 108.3C727 107.3 756 83.7 785.2 76.3C814.3 69 843.7 78 872.8 80.8C902 83.7 931 80.3 945.5 78.7L960 77L960 0L945.5 0C931 0 902 0 872.8 0C843.7 0 814.3 0 785.2 0C756 0 727 0 698 0C669 0 640 0 611 0C582 0 553 0 523.8 0C494.7 0 465.3 0 436.2 0C407 0 378 0 349 0C320 0 291 0 262 0C233 0 204 0 174.8 0C145.7 0 116.3 0 87.2 0C58 0 29 0 14.5 0L0 0Z" 
        fill="#bd352d">
    </path>
    <path 
        d="M0 158L14.5 158C29 158 58 158 87.2 152.5C116.3 147 145.7 136 174.8 135C204 134 233 143 262 147.5C291 152 320 152 349 150.2C378 148.3 407 144.7 436.2 148.3C465.3 152 494.7 163 523.8 158.5C553 154 582 134 611 140.3C640 146.7 669 179.3 698 183C727 186.7 756 161.3 785.2 154C814.3 146.7 843.7 157.3 872.8 157.3C902 157.3 931 146.7 945.5 141.3L960 136L960 75L945.5 76.7C931 78.3 902 81.7 872.8 78.8C843.7 76 814.3 67 785.2 74.3C756 81.7 727 105.3 698 106.3C669 107.3 640 85.7 611 84.7C582 83.7 553 103.3 523.8 102.3C494.7 101.3 465.3 79.7 436.2 70.7C407 61.7 378 65.3 349 74.3C320 83.3 291 97.7 262 99.5C233 101.3 204 90.7 174.8 83.5C145.7 76.3 116.3 72.7 87.2 78C58 83.3 29 97.7 14.5 104.8L0 112Z" 
        fill="#ab2018">
    </path>
    <path 
        d="M0 341L14.5 343.7C29 346.3 58 351.7 87.2 335.5C116.3 319.3 145.7 281.7 174.8 268.2C204 254.7 233 265.3 262 273.5C291 281.7 320 287.3 349 300C378 312.7 407 332.3 436.2 330.5C465.3 328.7 494.7 305.3 523.8 302.7C553 300 582 318 611 328.8C640 339.7 669 343.3 698 329.8C727 316.3 756 285.7 785.2 277.5C814.3 269.3 843.7 283.7 872.8 291.7C902 299.7 931 301.3 945.5 302.2L960 303L960 134L945.5 139.3C931 144.7 902 155.3 872.8 155.3C843.7 155.3 814.3 144.7 785.2 152C756 159.3 727 184.7 698 181C669 177.3 640 144.7 611 138.3C582 132 553 152 523.8 156.5C494.7 161 465.3 150 436.2 146.3C407 142.7 378 146.3 349 148.2C320 150 291 150 262 145.5C233 141 204 132 174.8 133C145.7 134 116.3 145 87.2 150.5C58 156 29 156 14.5 156L0 156Z" 
        fill="#990000">
    </path>
    <path 
        d="M0 422L14.5 426.5C29 431 58 440 87.2 418.5C116.3 397 145.7 345 174.8 324.3C204 303.7 233 314.3 262 328.7C291 343 320 361 349 378.2C378 395.3 407 411.7 436.2 408C465.3 404.3 494.7 380.7 523.8 373.3C553 366 582 375 611 380.5C640 386 669 388 698 374.5C727 361 756 332 785.2 329.3C814.3 326.7 843.7 350.3 872.8 360.3C902 370.3 931 366.7 945.5 364.8L960 363L960 301L945.5 300.2C931 299.3 902 297.7 872.8 289.7C843.7 281.7 814.3 267.3 785.2 275.5C756 283.7 727 314.3 698 327.8C669 341.3 640 337.7 611 326.8C582 316 553 298 523.8 300.7C494.7 303.3 465.3 326.7 436.2 328.5C407 330.3 378 310.7 349 298C320 285.3 291 279.7 262 271.5C233 263.3 204 252.7 174.8 266.2C145.7 279.7 116.3 317.3 87.2 333.5C58 349.7 29 344.3 14.5 341.7L0 339Z" 
        fill="#860007">
    </path>
    <path 
        d="M0 541L14.5 541C29 541 58 541 87.2 541C116.3 541 145.7 541 174.8 541C204 541 233 541 262 541C291 541 320 541 349 541C378 541 407 541 436.2 541C465.3 541 494.7 541 523.8 541C553 541 582 541 611 541C640 541 669 541 698 541C727 541 756 541 785.2 541C814.3 541 843.7 541 872.8 541C902 541 931 541 945.5 541L960 541L960 361L945.5 362.8C931 364.7 902 368.3 872.8 358.3C843.7 348.3 814.3 324.7 785.2 327.3C756 330 727 359 698 372.5C669 386 640 384 611 378.5C582 373 553 364 523.8 371.3C494.7 378.7 465.3 402.3 436.2 406C407 409.7 378 393.3 349 376.2C320 359 291 341 262 326.7C233 312.3 204 301.7 174.8 322.3C145.7 343 116.3 395 87.2 416.5C58 438 29 429 14.5 424.5L0 420Z" 
        fill="#72000b">
    </path>
</svg>