<svg id="visual" viewBox="0 0 960 540" width="960" height="540" xmlns="http://www.w3.org/2000/svg" xmlns:xlink="http://www.w3.org/1999/xlink" version="1.1"><rect x="0" y="0" width="960" height="540" fill="#001220"></rect><path d="M0 175L17.8 179.2C35.7 183.3 71.3 191.7 106.8 194.5C142.3 197.3 177.7 194.7 213.2 186.5C248.7 178.3 284.3 164.7 320 170.2C355.7 175.7 391.3 200.3 426.8 200.8C462.3 201.3 497.7 177.7 533.2 174.5C568.7 171.3 604.3 188.7 640 192.7C675.7 196.7 711.3 187.3 746.8 186.7C782.3 186 817.7 194 853.2 192.8C888.7 191.7 924.3 181.3 942.2 176.2L960 171L960 0L942.2 0C924.3 0 888.7 0 853.2 0C817.7 0 782.3 0 746.8 0C711.3 0 675.7 0 640 0C604.3 0 568.7 0 533.2 0C497.7 0 462.3 0 426.8 0C391.3 0 355.7 0 320 0C284.3 0 248.7 0 213.2 0C177.7 0 142.3 0 106.8 0C71.3 0 35.7 0 17.8 0L0 0Z" fill="#bd352d"></path><path d="M0 105L17.8 111C35.7 117 71.3 129 106.8 131.3C142.3 133.7 177.7 126.3 213.2 130.5C248.7 134.7 284.3 150.3 320 148.5C355.7 146.7 391.3 127.3 426.8 127C462.3 126.7 497.7 145.3 533.2 147.5C568.7 149.7 604.3 135.3 640 127.7C675.7 120 711.3 119 746.8 116.8C782.3 114.7 817.7 111.3 853.2 116.7C888.7 122 924.3 136 942.2 143L960 150L960 0L942.2 0C924.3 0 888.7 0 853.2 0C817.7 0 782.3 0 746.8 0C711.3 0 675.7 0 640 0C604.3 0 568.7 0 533.2 0C497.7 0 462.3 0 426.8 0C391.3 0 355.7 0 320 0C284.3 0 248.7 0 213.2 0C177.7 0 142.3 0 106.8 0C71.3 0 35.7 0 17.8 0L0 0Z" fill="#a51711"></path><path d="M0 86L17.8 84C35.7 82 71.3 78 106.8 83.7C142.3 89.3 177.7 104.7 213.2 103.3C248.7 102 284.3 84 320 80.3C355.7 76.7 391.3 87.3 426.8 87.2C462.3 87 497.7 76 533.2 80.3C568.7 84.7 604.3 104.3 640 108.2C675.7 112 711.3 100 746.8 90.5C782.3 81 817.7 74 853.2 74.5C888.7 75 924.3 83 942.2 87L960 91L960 0L942.2 0C924.3 0 888.7 0 853.2 0C817.7 0 782.3 0 746.8 0C711.3 0 675.7 0 640 0C604.3 0 568.7 0 533.2 0C497.7 0 462.3 0 426.8 0C391.3 0 355.7 0 320 0C284.3 0 248.7 0 213.2 0C177.7 0 142.3 0 106.8 0C71.3 0 35.7 0 17.8 0L0 0Z" fill="#8c0005"></path><path d="M0 45L17.8 45.8C35.7 46.7 71.3 48.3 106.8 48C142.3 47.7 177.7 45.3 213.2 43C248.7 40.7 284.3 38.3 320 37.3C355.7 36.3 391.3 36.7 426.8 37.7C462.3 38.7 497.7 40.3 533.2 41C568.7 41.7 604.3 41.3 640 45.8C675.7 50.3 711.3 59.7 746.8 63.5C782.3 67.3 817.7 65.7 853.2 62C888.7 58.3 924.3 52.7 942.2 49.8L960 47L960 0L942.2 0C924.3 0 888.7 0 853.2 0C817.7 0 782.3 0 746.8 0C711.3 0 675.7 0 640 0C604.3 0 568.7 0 533.2 0C497.7 0 462.3 0 426.8 0C391.3 0 355.7 0 320 0C284.3 0 248.7 0 213.2 0C177.7 0 142.3 0 106.8 0C71.3 0 35.7 0 17.8 0L0 0Z" fill="#72000b"></path></svg>