<svg id="visual" viewBox="0 0 960 540" width="960" height="540" xmlns="http://www.w3.org/2000/svg" xmlns:xlink="http://www.w3.org/1999/xlink" version="1.1"><rect x="0" y="0" width="960" height="540" fill="#990000"></rect><path d="M0 434L22.8 428C45.7 422 91.3 410 137 405.3C182.7 400.7 228.3 403.3 274 404.7C319.7 406 365.3 406 411.2 407C457 408 503 410 548.8 410.2C594.7 410.3 640.3 408.7 686 411.7C731.7 414.7 777.3 422.3 823 425.7C868.7 429 914.3 428 937.2 427.5L960 427L960 541L937.2 541C914.3 541 868.7 541 823 541C777.3 541 731.7 541 686 541C640.3 541 594.7 541 548.8 541C503 541 457 541 411.2 541C365.3 541 319.7 541 274 541C228.3 541 182.7 541 137 541C91.3 541 45.7 541 22.8 541L0 541Z" fill="#ffffff"></path><path d="M0 421L22.8 421.8C45.7 422.7 91.3 424.3 137 425.2C182.7 426 228.3 426 274 427.5C319.7 429 365.3 432 411.2 436.3C457 440.7 503 446.3 548.8 444.5C594.7 442.7 640.3 433.3 686 430.5C731.7 427.7 777.3 431.3 823 432.7C868.7 434 914.3 433 937.2 432.5L960 432L960 541L937.2 541C914.3 541 868.7 541 823 541C777.3 541 731.7 541 686 541C640.3 541 594.7 541 548.8 541C503 541 457 541 411.2 541C365.3 541 319.7 541 274 541C228.3 541 182.7 541 137 541C91.3 541 45.7 541 22.8 541L0 541Z" fill="#eaeaea"></path><path d="M0 462L22.8 463C45.7 464 91.3 466 137 463.2C182.7 460.3 228.3 452.7 274 448.7C319.7 444.7 365.3 444.3 411.2 445.8C457 447.3 503 450.7 548.8 451.7C594.7 452.7 640.3 451.3 686 450.8C731.7 450.3 777.3 450.7 823 449.7C868.7 448.7 914.3 446.3 937.2 445.2L960 444L960 541L937.2 541C914.3 541 868.7 541 823 541C777.3 541 731.7 541 686 541C640.3 541 594.7 541 548.8 541C503 541 457 541 411.2 541C365.3 541 319.7 541 274 541C228.3 541 182.7 541 137 541C91.3 541 45.7 541 22.8 541L0 541Z" fill="#d6d6d6"></path><path d="M0 491L22.8 489.3C45.7 487.7 91.3 484.3 137 482.2C182.7 480 228.3 479 274 476.3C319.7 473.7 365.3 469.3 411.2 469.2C457 469 503 473 548.8 474.3C594.7 475.7 640.3 474.3 686 472.2C731.7 470 777.3 467 823 466C868.7 465 914.3 466 937.2 466.5L960 467L960 541L937.2 541C914.3 541 868.7 541 823 541C777.3 541 731.7 541 686 541C640.3 541 594.7 541 548.8 541C503 541 457 541 411.2 541C365.3 541 319.7 541 274 541C228.3 541 182.7 541 137 541C91.3 541 45.7 541 22.8 541L0 541Z" fill="#c2c2c2"></path><path d="M0 489L22.8 489.7C45.7 490.3 91.3 491.7 137 493.3C182.7 495 228.3 497 274 495.3C319.7 493.7 365.3 488.3 411.2 489.8C457 491.3 503 499.7 548.8 501.5C594.7 503.3 640.3 498.7 686 497.8C731.7 497 777.3 500 823 502C868.7 504 914.3 505 937.2 505.5L960 506L960 541L937.2 541C914.3 541 868.7 541 823 541C777.3 541 731.7 541 686 541C640.3 541 594.7 541 548.8 541C503 541 457 541 411.2 541C365.3 541 319.7 541 274 541C228.3 541 182.7 541 137 541C91.3 541 45.7 541 22.8 541L0 541Z" fill="#aeaeae"></path><path d="M0 505L22.8 507.7C45.7 510.3 91.3 515.7 137 518.5C182.7 521.3 228.3 521.7 274 521.5C319.7 521.3 365.3 520.7 411.2 519.2C457 517.7 503 515.3 548.8 514.5C594.7 513.7 640.3 514.3 686 515.5C731.7 516.7 777.3 518.3 823 519.8C868.7 521.3 914.3 522.7 937.2 523.3L960 524L960 541L937.2 541C914.3 541 868.7 541 823 541C777.3 541 731.7 541 686 541C640.3 541 594.7 541 548.8 541C503 541 457 541 411.2 541C365.3 541 319.7 541 274 541C228.3 541 182.7 541 137 541C91.3 541 45.7 541 22.8 541L0 541Z" fill="#9b9b9b"></path></svg>