<svg id="visual" viewBox="0 0 960 540" width="960" height="540" xmlns="http://www.w3.org/2000/svg" xmlns:xlink="http://www.w3.org/1999/xlink" version="1.1"><path d="M0 12L12.3 12.8C24.7 13.7 49.3 15.3 74 16.2C98.7 17 123.3 17 148 17C172.7 17 197.3 17 221.8 18.8C246.3 20.7 270.7 24.3 295.2 25.3C319.7 26.3 344.3 24.7 369 22C393.7 19.3 418.3 15.7 443 13.8C467.7 12 492.3 12 517 12C541.7 12 566.3 12 591 12C615.7 12 640.3 12 664.8 13.8C689.3 15.7 713.7 19.3 738.2 21.2C762.7 23 787.3 23 812 23.8C836.7 24.7 861.3 26.3 886 24.5C910.7 22.7 935.3 17.3 947.7 14.7L960 12L960 0L947.7 0C935.3 0 910.7 0 886 0C861.3 0 836.7 0 812 0C787.3 0 762.7 0 738.2 0C713.7 0 689.3 0 664.8 0C640.3 0 615.7 0 591 0C566.3 0 541.7 0 517 0C492.3 0 467.7 0 443 0C418.3 0 393.7 0 369 0C344.3 0 319.7 0 295.2 0C270.7 0 246.3 0 221.8 0C197.3 0 172.7 0 148 0C123.3 0 98.7 0 74 0C49.3 0 24.7 0 12.3 0L0 0Z" fill="#001220"></path><path d="M0 44L12.3 44C24.7 44 49.3 44 74 42.2C98.7 40.3 123.3 36.7 148 39.3C172.7 42 197.3 51 221.8 53.8C246.3 56.7 270.7 53.3 295.2 52.5C319.7 51.7 344.3 53.3 369 53.3C393.7 53.3 418.3 51.7 443 51.7C467.7 51.7 492.3 53.3 517 54.2C541.7 55 566.3 55 591 55C615.7 55 640.3 55 664.8 53.2C689.3 51.3 713.7 47.7 738.2 46.8C762.7 46 787.3 48 812 49.8C836.7 51.7 861.3 53.3 886 52.3C910.7 51.3 935.3 47.7 947.7 45.8L960 44L960 10L947.7 12.7C935.3 15.3 910.7 20.7 886 22.5C861.3 24.3 836.7 22.7 812 21.8C787.3 21 762.7 21 738.2 19.2C713.7 17.3 689.3 13.7 664.8 11.8C640.3 10 615.7 10 591 10C566.3 10 541.7 10 517 10C492.3 10 467.7 10 443 11.8C418.3 13.7 393.7 17.3 369 20C344.3 22.7 319.7 24.3 295.2 23.3C270.7 22.3 246.3 18.7 221.8 16.8C197.3 15 172.7 15 148 15C123.3 15 98.7 15 74 14.2C49.3 13.3 24.7 11.7 12.3 10.8L0 10Z" fill="#04172c"></path><path d="M0 60L12.3 62.8C24.7 65.7 49.3 71.3 74 70.5C98.7 69.7 123.3 62.3 148 65C172.7 67.7 197.3 80.3 221.8 83C246.3 85.7 270.7 78.3 295.2 76.5C319.7 74.7 344.3 78.3 369 80.2C393.7 82 418.3 82 443 81.2C467.7 80.3 492.3 78.7 517 79.5C541.7 80.3 566.3 83.7 591 84.5C615.7 85.3 640.3 83.7 664.8 81C689.3 78.3 713.7 74.7 738.2 72.8C762.7 71 787.3 71 812 71C836.7 71 861.3 71 886 72C910.7 73 935.3 75 947.7 76L960 77L960 42L947.7 43.8C935.3 45.7 910.7 49.3 886 50.3C861.3 51.3 836.7 49.7 812 47.8C787.3 46 762.7 44 738.2 44.8C713.7 45.7 689.3 49.3 664.8 51.2C640.3 53 615.7 53 591 53C566.3 53 541.7 53 517 52.2C492.3 51.3 467.7 49.7 443 49.7C418.3 49.7 393.7 51.3 369 51.3C344.3 51.3 319.7 49.7 295.2 50.5C270.7 51.3 246.3 54.7 221.8 51.8C197.3 49 172.7 40 148 37.3C123.3 34.7 98.7 38.3 74 40.2C49.3 42 24.7 42 12.3 42L0 42Z" fill="#0e1937"></path><path d="M0 120L12.3 125.3C24.7 130.7 49.3 141.3 74 138.7C98.7 136 123.3 120 148 120C172.7 120 197.3 136 221.8 142.2C246.3 148.3 270.7 144.7 295.2 145.7C319.7 146.7 344.3 152.3 369 150.7C393.7 149 418.3 140 443 136.3C467.7 132.7 492.3 134.3 517 134.3C541.7 134.3 566.3 132.7 591 132.7C615.7 132.7 640.3 134.3 664.8 136C689.3 137.7 713.7 139.3 738.2 143C762.7 146.7 787.3 152.3 812 154.2C836.7 156 861.3 154 886 152.2C910.7 150.3 935.3 148.7 947.7 147.8L960 147L960 75L947.7 74C935.3 73 910.7 71 886 70C861.3 69 836.7 69 812 69C787.3 69 762.7 69 738.2 70.8C713.7 72.7 689.3 76.3 664.8 79C640.3 81.7 615.7 83.3 591 82.5C566.3 81.7 541.7 78.3 517 77.5C492.3 76.7 467.7 78.3 443 79.2C418.3 80 393.7 80 369 78.2C344.3 76.3 319.7 72.7 295.2 74.5C270.7 76.3 246.3 83.7 221.8 81C197.3 78.3 172.7 65.7 148 63C123.3 60.3 98.7 67.7 74 68.5C49.3 69.3 24.7 63.7 12.3 60.8L0 58Z" fill="#1f1a41"></path><path d="M0 141L12.3 151C24.7 161 49.3 181 74 182C98.7 183 123.3 165 148 161.3C172.7 157.7 197.3 168.3 221.8 172.8C246.3 177.3 270.7 175.7 295.2 179.3C319.7 183 344.3 192 369 192C393.7 192 418.3 183 443 179.3C467.7 175.7 492.3 177.3 517 175.5C541.7 173.7 566.3 168.3 591 165.7C615.7 163 640.3 163 664.8 163C689.3 163 713.7 163 738.2 166.7C762.7 170.3 787.3 177.7 812 183C836.7 188.3 861.3 191.7 886 189.8C910.7 188 935.3 181 947.7 177.5L960 174L960 145L947.7 145.8C935.3 146.7 910.7 148.3 886 150.2C861.3 152 836.7 154 812 152.2C787.3 150.3 762.7 144.7 738.2 141C713.7 137.3 689.3 135.7 664.8 134C640.3 132.3 615.7 130.7 591 130.7C566.3 130.7 541.7 132.3 517 132.3C492.3 132.3 467.7 130.7 443 134.3C418.3 138 393.7 147 369 148.7C344.3 150.3 319.7 144.7 295.2 143.7C270.7 142.7 246.3 146.3 221.8 140.2C197.3 134 172.7 118 148 118C123.3 118 98.7 134 74 136.7C49.3 139.3 24.7 128.7 12.3 123.3L0 118Z" fill="#321947"></path><path d="M0 206L12.3 216C24.7 226 49.3 246 74 247C98.7 248 123.3 230 148 223.7C172.7 217.3 197.3 222.7 221.8 223.5C246.3 224.3 270.7 220.7 295.2 220.7C319.7 220.7 344.3 224.3 369 228.8C393.7 233.3 418.3 238.7 443 240.5C467.7 242.3 492.3 240.7 517 232.5C541.7 224.3 566.3 209.7 591 208.7C615.7 207.7 640.3 220.3 664.8 220.3C689.3 220.3 713.7 207.7 738.2 207.7C762.7 207.7 787.3 220.3 812 228.5C836.7 236.7 861.3 240.3 886 236.8C910.7 233.3 935.3 222.7 947.7 217.3L960 212L960 172L947.7 175.5C935.3 179 910.7 186 886 187.8C861.3 189.7 836.7 186.3 812 181C787.3 175.7 762.7 168.3 738.2 164.7C713.7 161 689.3 161 664.8 161C640.3 161 615.7 161 591 163.7C566.3 166.3 541.7 171.7 517 173.5C492.3 175.3 467.7 173.7 443 177.3C418.3 181 393.7 190 369 190C344.3 190 319.7 181 295.2 177.3C270.7 173.7 246.3 175.3 221.8 170.8C197.3 166.3 172.7 155.7 148 159.3C123.3 163 98.7 181 74 180C49.3 179 24.7 159 12.3 149L0 139Z" fill="#461449"></path><path d="M0 320L12.3 324.5C24.7 329 49.3 338 74 341.5C98.7 345 123.3 343 148 340.2C172.7 337.3 197.3 333.7 221.8 334.7C246.3 335.7 270.7 341.3 295.2 333.3C319.7 325.3 344.3 303.7 369 307.2C393.7 310.7 418.3 339.3 443 354.7C467.7 370 492.3 372 517 358.5C541.7 345 566.3 316 591 309.7C615.7 303.3 640.3 319.7 664.8 325.2C689.3 330.7 713.7 325.3 738.2 321.7C762.7 318 787.3 316 812 317.7C836.7 319.3 861.3 324.7 886 327.3C910.7 330 935.3 330 947.7 330L960 330L960 210L947.7 215.3C935.3 220.7 910.7 231.3 886 234.8C861.3 238.3 836.7 234.7 812 226.5C787.3 218.3 762.7 205.7 738.2 205.7C713.7 205.7 689.3 218.3 664.8 218.3C640.3 218.3 615.7 205.7 591 206.7C566.3 207.7 541.7 222.3 517 230.5C492.3 238.7 467.7 240.3 443 238.5C418.3 236.7 393.7 231.3 369 226.8C344.3 222.3 319.7 218.7 295.2 218.7C270.7 218.7 246.3 222.3 221.8 221.5C197.3 220.7 172.7 215.3 148 221.7C123.3 228 98.7 246 74 245C49.3 244 24.7 224 12.3 214L0 204Z" fill="#5a0948"></path><path d="M0 347L12.3 350.5C24.7 354 49.3 361 74 362.7C98.7 364.3 123.3 360.7 148 357.2C172.7 353.7 197.3 350.3 221.8 352.2C246.3 354 270.7 361 295.2 355.5C319.7 350 344.3 332 369 335.7C393.7 339.3 418.3 364.7 443 378.2C467.7 391.7 492.3 393.3 517 379.8C541.7 366.3 566.3 337.7 591 330.5C615.7 323.3 640.3 337.7 664.8 343C689.3 348.3 713.7 344.7 738.2 343.8C762.7 343 787.3 345 812 346C836.7 347 861.3 347 886 348.7C910.7 350.3 935.3 353.7 947.7 355.3L960 357L960 328L947.7 328C935.3 328 910.7 328 886 325.3C861.3 322.7 836.7 317.3 812 315.7C787.3 314 762.7 316 738.2 319.7C713.7 323.3 689.3 328.7 664.8 323.2C640.3 317.7 615.7 301.3 591 307.7C566.3 314 541.7 343 517 356.5C492.3 370 467.7 368 443 352.7C418.3 337.3 393.7 308.7 369 305.2C344.3 301.7 319.7 323.3 295.2 331.3C270.7 339.3 246.3 333.7 221.8 332.7C197.3 331.7 172.7 335.3 148 338.2C123.3 341 98.7 343 74 339.5C49.3 336 24.7 327 12.3 322.5L0 318Z" fill="#6d0042"></path><path d="M0 363L12.3 367.5C24.7 372 49.3 381 74 383.7C98.7 386.3 123.3 382.7 148 377.2C172.7 371.7 197.3 364.3 221.8 364.3C246.3 364.3 270.7 371.7 295.2 366.3C319.7 361 344.3 343 369 347.5C393.7 352 418.3 379 443 392.5C467.7 406 492.3 406 517 393.3C541.7 380.7 566.3 355.3 591 349C615.7 342.7 640.3 355.3 664.8 359C689.3 362.7 713.7 357.3 738.2 355.5C762.7 353.7 787.3 355.3 812 358C836.7 360.7 861.3 364.3 886 368.8C910.7 373.3 935.3 378.7 947.7 381.3L960 384L960 355L947.7 353.3C935.3 351.7 910.7 348.3 886 346.7C861.3 345 836.7 345 812 344C787.3 343 762.7 341 738.2 341.8C713.7 342.7 689.3 346.3 664.8 341C640.3 335.7 615.7 321.3 591 328.5C566.3 335.7 541.7 364.3 517 377.8C492.3 391.3 467.7 389.7 443 376.2C418.3 362.7 393.7 337.3 369 333.7C344.3 330 319.7 348 295.2 353.5C270.7 359 246.3 352 221.8 350.2C197.3 348.3 172.7 351.7 148 355.2C123.3 358.7 98.7 362.3 74 360.7C49.3 359 24.7 352 12.3 348.5L0 345Z" fill="#7d0038"></path><path d="M0 401L12.3 402.7C24.7 404.3 49.3 407.7 74 410.3C98.7 413 123.3 415 148 411.5C172.7 408 197.3 399 221.8 397.2C246.3 395.3 270.7 400.7 295.2 393.5C319.7 386.3 344.3 366.7 369 369.3C393.7 372 418.3 397 443 411.3C467.7 425.7 492.3 429.3 517 418.5C541.7 407.7 566.3 382.3 591 374.2C615.7 366 640.3 375 664.8 379.5C689.3 384 713.7 384 738.2 384C762.7 384 787.3 384 812 384C836.7 384 861.3 384 886 390.3C910.7 396.7 935.3 409.3 947.7 415.7L960 422L960 382L947.7 379.3C935.3 376.7 910.7 371.3 886 366.8C861.3 362.3 836.7 358.7 812 356C787.3 353.3 762.7 351.7 738.2 353.5C713.7 355.3 689.3 360.7 664.8 357C640.3 353.3 615.7 340.7 591 347C566.3 353.3 541.7 378.7 517 391.3C492.3 404 467.7 404 443 390.5C418.3 377 393.7 350 369 345.5C344.3 341 319.7 359 295.2 364.3C270.7 369.7 246.3 362.3 221.8 362.3C197.3 362.3 172.7 369.7 148 375.2C123.3 380.7 98.7 384.3 74 381.7C49.3 379 24.7 370 12.3 365.5L0 361Z" fill="#8b002b"></path><path d="M0 460L12.3 456.3C24.7 452.7 49.3 445.3 74 443.5C98.7 441.7 123.3 445.3 148 444.5C172.7 443.7 197.3 438.3 221.8 438.3C246.3 438.3 270.7 443.7 295.2 438.3C319.7 433 344.3 417 369 418C393.7 419 418.3 437 443 446.8C467.7 456.7 492.3 458.3 517 448.3C541.7 438.3 566.3 416.7 591 413C615.7 409.3 640.3 423.7 664.8 428.2C689.3 432.7 713.7 427.3 738.2 427.3C762.7 427.3 787.3 432.7 812 431.8C836.7 431 861.3 424 886 430.3C910.7 436.7 935.3 456.3 947.7 466.2L960 476L960 420L947.7 413.7C935.3 407.3 910.7 394.7 886 388.3C861.3 382 836.7 382 812 382C787.3 382 762.7 382 738.2 382C713.7 382 689.3 382 664.8 377.5C640.3 373 615.7 364 591 372.2C566.3 380.3 541.7 405.7 517 416.5C492.3 427.3 467.7 423.7 443 409.3C418.3 395 393.7 370 369 367.3C344.3 364.7 319.7 384.3 295.2 391.5C270.7 398.7 246.3 393.3 221.8 395.2C197.3 397 172.7 406 148 409.5C123.3 413 98.7 411 74 408.3C49.3 405.7 24.7 402.3 12.3 400.7L0 399Z" fill="#94001a"></path><path d="M0 541L12.3 541C24.7 541 49.3 541 74 541C98.7 541 123.3 541 148 541C172.7 541 197.3 541 221.8 541C246.3 541 270.7 541 295.2 541C319.7 541 344.3 541 369 541C393.7 541 418.3 541 443 541C467.7 541 492.3 541 517 541C541.7 541 566.3 541 591 541C615.7 541 640.3 541 664.8 541C689.3 541 713.7 541 738.2 541C762.7 541 787.3 541 812 541C836.7 541 861.3 541 886 541C910.7 541 935.3 541 947.7 541L960 541L960 474L947.7 464.2C935.3 454.3 910.7 434.7 886 428.3C861.3 422 836.7 429 812 429.8C787.3 430.7 762.7 425.3 738.2 425.3C713.7 425.3 689.3 430.7 664.8 426.2C640.3 421.7 615.7 407.3 591 411C566.3 414.7 541.7 436.3 517 446.3C492.3 456.3 467.7 454.7 443 444.8C418.3 435 393.7 417 369 416C344.3 415 319.7 431 295.2 436.3C270.7 441.7 246.3 436.3 221.8 436.3C197.3 436.3 172.7 441.7 148 442.5C123.3 443.3 98.7 439.7 74 441.5C49.3 443.3 24.7 450.7 12.3 454.3L0 458Z" fill="#990000"></path></svg>