<svg id="visual" viewBox="0 0 900 600" width="900" height="600" xmlns="http://www.w3.org/2000/svg" xmlns:xlink="http://www.w3.org/1999/xlink" version="1.1"><rect x="0" y="0" width="900" height="600" fill="#001220"></rect><path d="M0 392L16.7 391C33.3 390 66.7 388 100 385.2C133.3 382.3 166.7 378.7 200 385.2C233.3 391.7 266.7 408.3 300 406.7C333.3 405 366.7 385 400 391C433.3 397 466.7 429 500 431.2C533.3 433.3 566.7 405.7 600 390C633.3 374.3 666.7 370.7 700 375C733.3 379.3 766.7 391.7 800 401C833.3 410.3 866.7 416.7 883.3 419.8L900 423L900 601L883.3 601C866.7 601 833.3 601 800 601C766.7 601 733.3 601 700 601C666.7 601 633.3 601 600 601C566.7 601 533.3 601 500 601C466.7 601 433.3 601 400 601C366.7 601 333.3 601 300 601C266.7 601 233.3 601 200 601C166.7 601 133.3 601 100 601C66.7 601 33.3 601 16.7 601L0 601Z" fill="#72000B" stroke-linecap="round" stroke-linejoin="miter"></path></svg>